<svg xmlns="http://www.w3.org/2000/svg" viewBox="0 0 180 180" width="180" height="180">
  <path d="M 96.750 157.938 L 83.125 157.938 L 81.000 157.688 L 78.625 157.062 L 75.875 156.812 L 73.750 156.062 L 71.750 155.812 L 70.375 155.188 L 68.500 154.812 L 67.000 154.062 L 65.375 153.688 L 64.750 153.188 L 63.125 152.812 L 62.125 152.062 L 61.000 151.812 L 59.625 150.938 L 58.875 150.812 L 58.125 150.188 L 57.000 149.812 L 56.375 149.188 L 55.125 148.688 L 54.500 148.062 L 53.500 147.688 L 46.625 142.688 L 43.375 139.812 L 38.062 134.250 L 33.062 127.625 L 31.688 125.125 L 31.062 124.500 L 30.688 123.375 L 30.188 122.875 L 28.688 119.625 L 28.062 118.750 L 27.812 117.625 L 27.062 116.500 L 26.812 115.250 L 26.062 114.000 L 25.688 112.250 L 24.938 110.750 L 24.812 109.500 L 24.062 107.875 L 23.812 105.750 L 23.062 103.625 L 22.812 100.750 L 22.062 97.000 L 22.062 83.125 L 22.938 78.500 L 23.062 76.375 L 23.812 74.250 L 24.062 72.250 L 24.688 70.875 L 25.062 68.875 L 25.812 67.375 L 26.062 66.000 L 26.688 65.125 L 27.062 63.500 L 27.812 62.375 L 28.062 61.250 L 31.188 55.375 L 35.938 48.375 L 40.062 43.500 L 45.625 38.188 L 50.750 34.188 L 55.375 31.188 L 56.375 30.812 L 57.250 30.062 L 57.875 29.938 L 59.125 29.062 L 59.875 28.938 L 61.250 28.062 L 62.375 27.812 L 63.500 27.062 L 65.125 26.688 L 66.000 26.062 L 67.750 25.688 L 68.875 25.062 L 70.875 24.688 L 72.250 24.062 L 74.250 23.812 L 76.375 23.062 L 78.500 22.938 L 83.125 22.062 L 95.125 21.938 L 97.875 22.188 L 100.625 22.812 L 103.500 23.062 L 105.750 23.812 L 107.750 24.062 L 109.125 24.688 L 111.125 25.062 L 112.625 25.812 L 114.000 26.062 L 115.250 26.812 L 116.500 27.062 L 118.000 27.938 L 119.000 28.188 L 119.750 28.812 L 121.000 29.188 L 122.875 30.188 L 123.375 30.688 L 124.500 31.062 L 125.125 31.688 L 126.250 32.188 L 128.375 33.812 L 130.500 35.062 L 135.250 38.938 L 139.812 43.375 L 143.938 48.125 L 143.938 48.625 L 143.375 49.062 L 105.500 48.938 L 104.062 47.000 L 103.812 46.125 L 102.188 43.625 L 101.688 42.375 L 101.188 41.875 L 100.688 40.625 L 100.188 40.125 L 99.688 38.875 L 99.188 38.375 L 98.688 37.125 L 98.062 36.375 L 97.812 35.500 L 97.062 34.625 L 96.812 33.750 L 96.062 32.875 L 95.812 32.000 L 94.188 29.500 L 93.688 28.250 L 93.188 27.750 L 90.812 23.250 L 90.375 22.812 L 89.500 23.062 L 88.062 25.375 L 87.812 26.250 L 85.188 30.875 L 84.812 32.000 L 84.188 32.750 L 83.812 33.875 L 83.188 34.625 L 82.688 36.000 L 82.188 36.500 L 81.688 37.875 L 81.188 38.375 L 80.688 39.750 L 80.062 40.500 L 79.688 41.625 L 79.062 42.375 L 78.938 43.000 L 76.188 47.875 L 75.812 49.000 L 75.188 49.750 L 73.688 53.000 L 73.188 53.500 L 72.688 54.875 L 72.188 55.375 L 71.688 56.750 L 71.062 57.500 L 70.688 58.625 L 70.062 59.375 L 69.688 60.500 L 67.188 64.875 L 66.812 66.000 L 66.188 66.750 L 65.812 67.875 L 65.188 68.625 L 64.688 70.000 L 64.188 70.500 L 63.688 71.875 L 63.188 72.375 L 62.688 73.750 L 62.062 74.500 L 61.688 75.625 L 61.062 76.375 L 60.688 77.500 L 57.938 82.375 L 57.812 83.000 L 56.188 85.625 L 55.688 87.000 L 55.188 87.500 L 54.688 88.875 L 54.188 89.375 L 53.688 90.750 L 52.062 93.375 L 51.938 94.000 L 49.188 98.875 L 48.812 100.000 L 47.188 102.625 L 46.688 104.000 L 46.188 104.500 L 45.688 105.875 L 45.188 106.375 L 44.688 107.750 L 44.062 108.500 L 43.688 109.625 L 43.062 110.375 L 42.938 111.000 L 40.688 115.250 L 40.062 116.000 L 39.938 116.625 L 39.188 117.750 L 38.812 118.875 L 38.188 119.625 L 37.812 120.750 L 37.188 121.500 L 36.688 122.875 L 36.188 123.375 L 35.688 124.750 L 35.062 125.500 L 34.938 126.375 L 35.375 126.812 L 145.500 126.812 L 145.812 126.500 L 145.812 125.875 L 141.188 119.375 L 140.812 118.500 L 139.062 116.250 L 137.812 114.125 L 137.188 113.500 L 136.812 112.625 L 135.188 110.625 L 134.812 109.750 L 133.062 107.500 L 132.688 106.625 L 131.062 104.500 L 129.812 102.375 L 128.500 101.062 L 75.125 101.062 L 74.562 100.625 L 74.562 100.250 L 75.688 98.625 L 77.062 95.875 L 77.812 95.000 L 78.062 94.125 L 79.812 91.500 L 80.062 90.625 L 80.812 89.750 L 81.062 88.875 L 82.688 86.500 L 83.188 85.250 L 83.688 84.750 L 84.188 83.500 L 84.688 83.000 L 85.188 81.750 L 85.688 81.250 L 88.062 76.750 L 89.000 75.938 L 156.375 75.938 L 156.938 76.500 L 157.062 78.625 L 157.812 82.000 L 157.938 96.875 L 157.562 99.625 L 157.062 101.375 L 156.812 104.125 L 156.062 106.250 L 155.812 108.250 L 155.188 109.625 L 154.812 111.500 L 154.188 112.625 L 153.812 114.250 L 153.188 115.250 L 152.812 116.750 L 152.062 117.875 L 151.812 119.000 L 151.188 119.875 L 150.688 121.250 L 149.688 123.125 L 149.188 123.625 L 148.688 124.875 L 148.062 125.500 L 147.688 126.500 L 142.688 133.375 L 138.875 137.562 L 133.375 142.688 L 128.000 146.688 L 127.125 147.062 L 124.875 148.688 L 123.625 149.188 L 123.125 149.688 L 119.875 151.188 L 119.000 151.812 L 117.625 152.188 L 116.875 152.812 L 115.250 153.188 L 114.250 153.812 L 112.625 154.188 L 111.500 154.812 L 110.000 155.062 L 107.750 155.938 L 106.250 156.062 L 104.125 156.812 L 101.375 157.062 L 99.625 157.562 L 96.750 157.938 Z" fill="#102b72"/>
</svg>