<svg xmlns="http://www.w3.org/2000/svg" width="1200" height="400" viewBox="0 0 1200 400" role="img" aria-label="GOR Pumps logo">
<g transform="translate(362.222,0.000) scale(1.111111)">
<path d="M 271 275 L 271 359 L 298 359 L 299 358 L 299 327 L 300 326 L 320 326 L 321 325 L 325 325 L 326 324 L 328 324 L 329 323 L 330 323 L 331 322 L 332 322 L 334 320 L 335 320 L 337 318 L 337 317 L 339 315 L 339 314 L 340 313 L 340 312 L 341 311 L 341 308 L 342 307 L 342 293 L 341 292 L 341 290 L 340 289 L 340 288 L 338 286 L 338 285 L 335 282 L 334 282 L 332 280 L 331 280 L 330 279 L 329 279 L 328 278 L 325 278 L 324 277 L 321 277 L 320 276 L 311 276 L 310 275 Z M 299 292 L 300 291 L 310 291 L 314 295 L 314 297 L 315 298 L 315 303 L 314 304 L 314 306 L 313 307 L 313 308 L 312 309 L 311 309 L 310 310 L 307 310 L 306 311 L 300 311 L 299 310 Z M 160 275 L 159 276 L 159 358 L 160 359 L 185 359 L 185 336 L 184 335 L 184 318 L 183 317 L 184 316 L 184 315 L 183 314 L 183 305 L 184 304 L 185 305 L 185 307 L 186 308 L 186 311 L 187 312 L 187 315 L 188 316 L 188 318 L 189 319 L 189 322 L 190 323 L 190 326 L 191 327 L 191 330 L 192 331 L 192 333 L 193 334 L 193 337 L 194 338 L 194 341 L 195 342 L 195 344 L 196 345 L 196 348 L 197 349 L 197 351 L 198 352 L 198 355 L 199 356 L 199 358 L 200 359 L 220 359 L 220 358 L 221 357 L 221 354 L 222 353 L 222 351 L 223 350 L 223 347 L 224 346 L 224 344 L 225 343 L 225 340 L 226 339 L 226 336 L 227 335 L 227 333 L 228 332 L 228 329 L 229 328 L 229 326 L 230 325 L 230 322 L 231 321 L 231 319 L 232 318 L 232 315 L 233 314 L 233 311 L 234 310 L 234 308 L 235 307 L 236 308 L 236 332 L 235 333 L 235 352 L 234 353 L 234 358 L 235 359 L 260 359 L 261 358 L 261 276 L 260 275 L 223 275 L 223 276 L 222 277 L 222 280 L 221 281 L 221 283 L 220 284 L 220 287 L 219 288 L 219 290 L 218 291 L 218 294 L 217 295 L 217 298 L 216 299 L 216 301 L 215 302 L 215 305 L 214 306 L 214 308 L 213 309 L 213 312 L 212 313 L 212 316 L 211 317 L 211 319 L 210 320 L 209 319 L 209 317 L 208 316 L 208 314 L 207 313 L 207 310 L 206 309 L 206 306 L 205 305 L 205 303 L 204 302 L 204 299 L 203 298 L 203 296 L 202 295 L 202 292 L 201 291 L 201 288 L 200 287 L 200 285 L 199 284 L 199 281 L 198 280 L 198 278 L 197 277 L 197 275 Z M 80 275 L 79 276 L 79 340 L 80 341 L 80 344 L 81 345 L 81 346 L 82 347 L 82 348 L 84 350 L 84 351 L 86 353 L 87 353 L 89 355 L 90 355 L 92 357 L 94 357 L 95 358 L 97 358 L 98 359 L 132 359 L 133 358 L 135 358 L 136 357 L 137 357 L 138 356 L 139 356 L 141 354 L 142 354 L 146 350 L 146 349 L 148 347 L 148 346 L 149 345 L 149 342 L 150 341 L 150 275 L 124 275 L 123 276 L 123 338 L 122 339 L 122 341 L 118 345 L 111 345 L 110 344 L 109 344 L 107 342 L 107 339 L 106 338 L 106 275 Z M 2 275 L 1 276 L 1 358 L 2 359 L 28 359 L 28 327 L 29 326 L 50 326 L 51 325 L 54 325 L 55 324 L 57 324 L 58 323 L 59 323 L 60 322 L 61 322 L 62 321 L 63 321 L 67 317 L 67 316 L 69 314 L 69 312 L 70 311 L 70 310 L 71 309 L 71 292 L 70 291 L 70 290 L 69 289 L 69 287 L 63 281 L 62 281 L 61 280 L 60 280 L 59 279 L 58 279 L 57 278 L 55 278 L 54 277 L 51 277 L 50 276 L 40 276 L 39 275 Z M 28 292 L 29 291 L 39 291 L 40 292 L 41 292 L 43 294 L 43 295 L 44 296 L 44 305 L 43 306 L 43 307 L 40 310 L 37 310 L 36 311 L 29 311 L 28 310 Z M 376 273 L 375 274 L 369 274 L 368 275 L 365 275 L 364 276 L 362 276 L 361 277 L 360 277 L 359 278 L 358 278 L 355 281 L 354 281 L 353 282 L 353 283 L 350 286 L 350 288 L 349 289 L 349 291 L 348 292 L 348 303 L 349 304 L 349 305 L 350 306 L 350 308 L 352 310 L 352 311 L 356 315 L 357 315 L 359 317 L 360 317 L 362 319 L 363 319 L 364 320 L 365 320 L 366 321 L 367 321 L 368 322 L 370 322 L 371 323 L 372 323 L 373 324 L 374 324 L 375 325 L 376 325 L 377 326 L 378 326 L 379 327 L 381 327 L 383 329 L 384 329 L 389 334 L 389 340 L 388 341 L 388 342 L 386 344 L 385 344 L 384 345 L 378 345 L 377 344 L 376 344 L 372 340 L 372 331 L 346 331 L 346 342 L 347 343 L 347 345 L 348 346 L 348 348 L 355 355 L 356 355 L 357 356 L 358 356 L 359 357 L 360 357 L 361 358 L 363 358 L 364 359 L 396 359 L 397 358 L 399 358 L 400 357 L 401 357 L 402 356 L 403 356 L 404 355 L 405 355 L 408 352 L 409 352 L 409 351 L 412 348 L 412 347 L 413 346 L 413 344 L 414 343 L 414 339 L 415 338 L 415 332 L 414 331 L 414 327 L 413 326 L 413 325 L 412 324 L 412 323 L 411 322 L 411 321 L 406 316 L 405 316 L 403 314 L 402 314 L 401 313 L 400 313 L 399 312 L 398 312 L 397 311 L 396 311 L 395 310 L 394 310 L 393 309 L 392 309 L 391 308 L 389 308 L 388 307 L 387 307 L 386 306 L 385 306 L 384 305 L 383 305 L 382 304 L 381 304 L 380 303 L 379 303 L 377 301 L 376 301 L 374 299 L 374 298 L 373 297 L 373 294 L 374 293 L 374 292 L 377 289 L 384 289 L 385 290 L 386 290 L 387 291 L 387 292 L 388 293 L 388 294 L 389 295 L 389 300 L 390 301 L 414 301 L 415 300 L 415 296 L 414 295 L 414 291 L 413 290 L 413 289 L 412 288 L 412 287 L 411 286 L 411 285 L 406 280 L 405 280 L 403 278 L 402 278 L 401 277 L 400 277 L 399 276 L 397 276 L 396 275 L 393 275 L 392 274 L 386 274 L 385 273 Z M 203 60 L 202 61 L 200 61 L 198 63 L 197 63 L 193 67 L 193 68 L 192 69 L 192 70 L 191 71 L 191 82 L 192 83 L 192 84 L 193 85 L 193 86 L 198 91 L 199 91 L 200 92 L 202 92 L 203 93 L 212 93 L 213 92 L 215 92 L 216 91 L 217 91 L 222 86 L 222 85 L 223 84 L 223 83 L 224 82 L 224 78 L 225 77 L 225 76 L 224 75 L 224 71 L 223 70 L 223 69 L 222 68 L 222 67 L 218 63 L 217 63 L 215 61 L 213 61 L 212 60 Z M 225 0 L 226 1 L 228 1 L 229 2 L 231 2 L 232 3 L 233 3 L 234 4 L 236 4 L 237 5 L 238 5 L 239 6 L 240 6 L 241 7 L 242 7 L 244 9 L 245 9 L 246 10 L 247 10 L 249 12 L 250 12 L 253 15 L 254 15 L 268 29 L 268 30 L 269 31 L 268 32 L 266 32 L 255 21 L 254 21 L 251 18 L 250 18 L 248 16 L 247 16 L 246 15 L 245 15 L 244 14 L 243 14 L 242 13 L 241 13 L 240 12 L 239 12 L 238 11 L 237 11 L 236 10 L 234 10 L 233 9 L 231 9 L 230 8 L 229 8 L 228 7 L 224 7 L 223 6 L 221 6 L 220 5 L 214 5 L 212 7 L 212 8 L 210 10 L 210 11 L 209 12 L 209 13 L 212 13 L 213 14 L 218 14 L 219 15 L 221 15 L 222 16 L 225 16 L 226 17 L 227 17 L 228 18 L 229 18 L 230 19 L 231 19 L 232 20 L 233 20 L 234 21 L 235 21 L 236 22 L 237 22 L 239 24 L 240 24 L 243 27 L 244 27 L 250 33 L 248 35 L 247 35 L 246 34 L 245 34 L 241 30 L 240 30 L 238 28 L 237 28 L 236 27 L 235 27 L 234 26 L 233 26 L 232 25 L 231 25 L 230 24 L 229 24 L 228 23 L 226 23 L 225 22 L 224 22 L 223 21 L 220 21 L 219 20 L 216 20 L 215 19 L 207 19 L 206 20 L 206 28 L 210 28 L 211 29 L 214 29 L 215 30 L 218 30 L 219 31 L 220 31 L 221 32 L 223 32 L 224 33 L 225 33 L 226 34 L 227 34 L 229 36 L 230 36 L 232 38 L 233 38 L 235 40 L 233 42 L 232 42 L 231 41 L 230 41 L 229 40 L 228 40 L 227 39 L 226 39 L 225 38 L 224 38 L 223 37 L 221 37 L 220 36 L 219 36 L 218 35 L 214 35 L 213 34 L 207 34 L 207 36 L 208 37 L 208 38 L 209 39 L 209 40 L 210 41 L 210 42 L 211 43 L 211 44 L 213 46 L 213 47 L 214 48 L 214 49 L 218 53 L 218 54 L 223 59 L 223 60 L 228 65 L 228 66 L 232 70 L 232 71 L 234 73 L 234 74 L 236 76 L 236 77 L 237 78 L 237 79 L 238 80 L 238 81 L 239 82 L 239 84 L 240 85 L 240 86 L 241 87 L 241 89 L 242 90 L 242 93 L 243 94 L 243 99 L 244 100 L 244 114 L 243 115 L 243 119 L 242 120 L 242 122 L 241 123 L 241 126 L 240 127 L 240 128 L 239 129 L 239 130 L 238 131 L 238 132 L 237 133 L 237 134 L 235 136 L 235 137 L 233 139 L 233 140 L 223 150 L 222 150 L 220 152 L 219 152 L 218 153 L 217 153 L 215 155 L 213 155 L 212 156 L 210 156 L 210 157 L 299 157 L 299 99 L 300 98 L 328 98 L 329 99 L 331 99 L 332 100 L 333 100 L 334 101 L 335 101 L 341 107 L 341 108 L 343 110 L 343 112 L 344 113 L 344 114 L 345 115 L 345 146 L 346 147 L 346 150 L 347 151 L 347 153 L 349 155 L 350 155 L 351 156 L 352 156 L 353 157 L 418 157 L 417 156 L 416 156 L 412 152 L 412 151 L 411 150 L 411 147 L 410 146 L 410 119 L 409 118 L 409 110 L 408 109 L 408 105 L 407 104 L 407 102 L 406 101 L 406 100 L 405 99 L 405 98 L 403 96 L 403 95 L 395 87 L 394 87 L 391 84 L 390 84 L 389 83 L 388 83 L 387 82 L 386 82 L 385 81 L 384 81 L 383 80 L 382 80 L 381 79 L 382 78 L 383 78 L 384 77 L 385 77 L 386 76 L 387 76 L 388 75 L 389 75 L 391 73 L 392 73 L 401 64 L 401 63 L 404 60 L 404 59 L 405 58 L 405 57 L 406 56 L 406 54 L 407 53 L 407 52 L 408 51 L 408 47 L 409 46 L 409 36 L 408 35 L 408 31 L 407 30 L 407 28 L 406 27 L 406 26 L 405 25 L 405 24 L 404 23 L 404 22 L 403 21 L 403 20 L 400 17 L 400 16 L 395 11 L 394 11 L 391 8 L 390 8 L 388 6 L 387 6 L 386 5 L 385 5 L 384 4 L 382 4 L 381 3 L 380 3 L 379 2 L 376 2 L 375 1 L 371 1 L 370 0 Z M 248 60 L 249 59 L 250 60 L 250 61 L 249 62 L 248 61 Z M 281 59 L 282 58 L 283 59 L 283 60 L 282 61 L 281 60 Z M 246 58 L 247 57 L 248 57 L 249 58 L 249 59 L 248 60 Z M 279 54 L 280 53 L 282 55 L 282 58 L 281 59 L 280 58 L 280 56 L 279 55 Z M 261 54 L 262 53 L 263 53 L 264 54 L 264 55 L 265 56 L 265 58 L 264 59 L 263 58 L 263 57 L 262 56 L 262 55 Z M 238 47 L 239 46 L 241 46 L 243 48 L 243 49 L 244 50 L 244 51 L 243 52 Z M 252 41 L 253 40 L 256 40 L 257 41 L 257 42 L 259 44 L 259 45 L 260 46 L 259 47 L 257 47 L 256 46 L 256 45 Z M 271 39 L 272 38 L 273 38 L 276 41 L 276 42 L 277 43 L 277 44 L 278 45 L 277 46 L 276 46 L 274 44 L 274 43 L 273 42 L 273 41 Z M 299 23 L 300 22 L 322 22 L 323 23 L 328 23 L 329 24 L 330 24 L 331 25 L 332 25 L 333 26 L 334 26 L 336 28 L 337 28 L 341 32 L 341 33 L 343 35 L 343 36 L 344 37 L 344 38 L 345 39 L 345 42 L 346 43 L 346 53 L 345 54 L 345 56 L 344 57 L 344 58 L 343 59 L 343 60 L 342 61 L 342 62 L 334 70 L 333 70 L 332 71 L 331 71 L 330 72 L 327 72 L 326 73 L 321 73 L 320 74 L 300 74 L 299 73 Z M 53 0 L 52 1 L 48 1 L 47 2 L 45 2 L 44 3 L 42 3 L 41 4 L 40 4 L 39 5 L 38 5 L 37 6 L 36 6 L 35 7 L 34 7 L 33 8 L 32 8 L 27 13 L 26 13 L 21 18 L 21 19 L 17 23 L 17 24 L 14 27 L 14 28 L 12 30 L 12 31 L 11 32 L 11 33 L 10 34 L 10 35 L 9 36 L 9 37 L 8 38 L 8 39 L 7 40 L 7 42 L 6 43 L 6 44 L 5 45 L 5 47 L 4 48 L 4 50 L 3 51 L 3 54 L 2 55 L 2 60 L 1 61 L 1 65 L 0 66 L 0 91 L 1 92 L 1 97 L 2 98 L 2 102 L 3 103 L 3 106 L 4 107 L 4 109 L 5 110 L 5 112 L 6 113 L 6 114 L 7 115 L 7 117 L 8 118 L 8 119 L 9 120 L 9 121 L 10 122 L 10 123 L 11 124 L 11 125 L 12 126 L 12 127 L 14 129 L 14 130 L 16 132 L 16 133 L 19 136 L 19 137 L 27 145 L 28 145 L 32 149 L 33 149 L 35 151 L 36 151 L 37 152 L 38 152 L 39 153 L 40 153 L 41 154 L 43 154 L 44 155 L 46 155 L 47 156 L 50 156 L 51 157 L 192 157 L 191 156 L 188 156 L 187 155 L 184 155 L 183 154 L 182 154 L 181 153 L 179 153 L 178 152 L 177 152 L 176 151 L 175 151 L 174 150 L 173 150 L 172 149 L 171 149 L 170 148 L 169 148 L 167 146 L 166 146 L 164 144 L 163 144 L 161 142 L 160 142 L 154 136 L 153 136 L 152 135 L 152 134 L 151 134 L 150 133 L 150 132 L 147 129 L 148 128 L 150 128 L 157 135 L 158 135 L 161 138 L 162 138 L 164 140 L 165 140 L 166 141 L 167 141 L 169 143 L 170 143 L 171 144 L 172 144 L 173 145 L 174 145 L 175 146 L 177 146 L 178 147 L 179 147 L 180 148 L 182 148 L 183 149 L 185 149 L 186 150 L 189 150 L 190 151 L 194 151 L 195 152 L 198 152 L 199 153 L 201 153 L 208 146 L 208 145 L 202 145 L 201 144 L 197 144 L 196 143 L 193 143 L 192 142 L 190 142 L 189 141 L 187 141 L 186 140 L 185 140 L 184 139 L 183 139 L 182 138 L 181 138 L 180 137 L 179 137 L 177 135 L 176 135 L 175 134 L 174 134 L 171 131 L 170 131 L 166 127 L 168 125 L 169 125 L 170 126 L 171 126 L 174 129 L 175 129 L 177 131 L 178 131 L 179 132 L 180 132 L 181 133 L 182 133 L 183 134 L 184 134 L 185 135 L 187 135 L 188 136 L 189 136 L 190 137 L 193 137 L 194 138 L 196 138 L 197 139 L 203 139 L 204 140 L 210 140 L 211 139 L 211 134 L 212 133 L 212 132 L 210 132 L 209 131 L 204 131 L 203 130 L 199 130 L 198 129 L 196 129 L 195 128 L 193 128 L 192 127 L 191 127 L 190 126 L 189 126 L 188 125 L 187 125 L 185 123 L 184 123 L 182 121 L 182 120 L 183 119 L 185 119 L 186 120 L 187 120 L 188 121 L 189 121 L 190 122 L 191 122 L 192 123 L 194 123 L 195 124 L 197 124 L 198 125 L 202 125 L 203 126 L 211 126 L 211 122 L 210 121 L 210 120 L 209 119 L 209 117 L 207 115 L 207 114 L 206 113 L 206 112 L 205 111 L 205 110 L 202 107 L 202 106 L 199 103 L 199 102 L 195 98 L 195 97 L 189 91 L 189 90 L 185 86 L 185 85 L 183 83 L 183 82 L 181 80 L 181 79 L 180 78 L 180 77 L 179 76 L 179 75 L 178 74 L 91 74 L 91 97 L 92 98 L 120 98 L 121 99 L 121 100 L 120 101 L 120 105 L 119 106 L 119 109 L 118 110 L 118 112 L 117 113 L 117 115 L 116 116 L 116 117 L 115 118 L 115 120 L 114 121 L 114 122 L 113 123 L 113 124 L 112 125 L 112 126 L 111 127 L 111 128 L 108 131 L 108 132 L 102 138 L 101 138 L 100 139 L 99 139 L 98 140 L 96 140 L 95 141 L 91 141 L 90 140 L 88 140 L 87 139 L 86 139 L 84 137 L 83 137 L 78 132 L 78 131 L 76 129 L 76 128 L 74 126 L 74 125 L 73 124 L 73 123 L 72 122 L 72 121 L 71 120 L 71 118 L 70 117 L 70 116 L 69 115 L 69 113 L 68 112 L 68 110 L 67 109 L 67 106 L 66 105 L 66 100 L 65 99 L 65 95 L 64 94 L 64 64 L 65 63 L 65 58 L 66 57 L 66 53 L 67 52 L 67 48 L 68 47 L 68 45 L 69 44 L 69 42 L 70 41 L 70 40 L 71 39 L 71 37 L 72 36 L 72 35 L 73 34 L 73 33 L 74 32 L 74 31 L 76 29 L 76 28 L 78 26 L 78 25 L 84 19 L 85 19 L 86 18 L 87 18 L 88 17 L 90 17 L 91 16 L 95 16 L 96 17 L 98 17 L 99 18 L 100 18 L 102 20 L 103 20 L 108 25 L 108 26 L 110 28 L 110 29 L 112 31 L 112 32 L 113 33 L 113 34 L 114 35 L 114 36 L 115 37 L 115 39 L 116 40 L 116 41 L 117 42 L 117 45 L 118 46 L 118 48 L 119 49 L 119 50 L 120 50 L 121 51 L 172 51 L 173 50 L 173 41 L 174 40 L 174 37 L 175 36 L 175 33 L 176 32 L 176 30 L 177 29 L 177 28 L 178 27 L 178 26 L 179 25 L 179 24 L 180 23 L 180 22 L 182 20 L 182 19 L 184 17 L 184 16 L 193 7 L 194 7 L 197 4 L 198 4 L 199 3 L 200 3 L 201 2 L 202 2 L 203 1 L 204 1 L 205 0 Z M 157 116 L 158 115 L 159 115 L 163 119 L 162 120 L 161 120 L 160 121 L 159 120 L 159 119 L 157 117 Z M 138 116 L 139 115 L 140 115 L 142 117 L 142 118 L 145 121 L 144 122 L 142 122 L 141 121 L 141 120 L 139 118 L 139 117 Z M 172 111 L 173 110 L 174 110 L 177 113 L 177 114 L 176 115 L 175 115 L 172 112 Z M 150 103 L 151 102 L 153 104 L 153 105 L 154 106 L 154 107 L 155 108 L 154 109 L 153 109 L 152 108 L 152 107 L 151 106 L 151 105 L 150 104 Z M 133 103 L 134 102 L 136 104 L 136 106 L 137 107 L 136 108 L 135 108 L 134 107 L 134 105 L 133 104 Z M 166 102 L 167 101 L 169 103 L 169 104 L 168 105 L 166 103 Z M 165 100 L 166 99 L 167 100 L 166 101 Z" fill="rgb(0,104,179)" fill-rule="evenodd"/>
<path d="M 244 197 L 244 209 L 263 209 L 263 197 Z M 380 173 L 380 229 L 394 229 L 394 208 L 395 207 L 405 207 L 406 206 L 408 206 L 409 205 L 410 205 L 413 202 L 413 201 L 414 200 L 414 199 L 415 198 L 415 195 L 416 194 L 416 185 L 415 184 L 415 182 L 414 181 L 414 180 L 413 179 L 413 178 L 411 176 L 410 176 L 409 175 L 408 175 L 407 174 L 405 174 L 404 173 Z M 394 184 L 395 183 L 398 183 L 399 184 L 400 184 L 401 185 L 401 186 L 402 187 L 402 192 L 401 193 L 401 194 L 399 196 L 398 196 L 397 197 L 395 197 L 394 196 Z M 343 173 L 343 229 L 356 229 L 356 208 L 357 207 L 367 207 L 368 206 L 370 206 L 371 205 L 372 205 L 375 202 L 375 201 L 376 200 L 376 199 L 377 198 L 377 195 L 378 194 L 378 185 L 377 184 L 377 181 L 376 180 L 376 179 L 372 175 L 371 175 L 370 174 L 367 174 L 366 173 Z M 356 184 L 357 183 L 360 183 L 361 184 L 362 184 L 363 185 L 363 186 L 364 187 L 364 192 L 363 193 L 363 194 L 361 196 L 360 196 L 359 197 L 357 197 L 356 196 Z M 304 173 L 304 219 L 305 220 L 305 222 L 306 223 L 306 224 L 310 228 L 311 228 L 312 229 L 314 229 L 315 230 L 328 230 L 329 229 L 331 229 L 332 228 L 333 228 L 337 224 L 337 223 L 338 222 L 338 220 L 339 219 L 339 173 L 325 173 L 325 216 L 324 217 L 324 218 L 322 220 L 321 220 L 320 219 L 319 219 L 318 218 L 318 173 Z M 266 173 L 266 229 L 280 229 L 280 208 L 281 207 L 284 207 L 286 209 L 286 211 L 287 212 L 287 227 L 288 228 L 288 229 L 303 229 L 303 227 L 302 226 L 302 222 L 301 221 L 301 207 L 300 206 L 300 205 L 299 204 L 299 203 L 298 203 L 296 201 L 300 197 L 300 196 L 301 195 L 301 182 L 300 181 L 300 180 L 299 179 L 299 178 L 296 175 L 295 175 L 294 174 L 292 174 L 291 173 Z M 280 184 L 281 183 L 283 183 L 284 184 L 285 184 L 287 186 L 287 193 L 286 194 L 286 195 L 285 196 L 281 196 L 280 195 Z M 76 173 L 76 228 L 77 229 L 90 229 L 90 208 L 91 207 L 94 207 L 97 210 L 97 214 L 98 215 L 98 229 L 128 229 L 128 205 L 129 204 L 130 205 L 130 209 L 131 210 L 131 214 L 132 215 L 132 219 L 133 220 L 133 224 L 134 225 L 134 229 L 145 229 L 145 228 L 146 227 L 146 224 L 147 223 L 147 219 L 148 218 L 148 214 L 149 213 L 149 209 L 150 208 L 150 204 L 151 203 L 152 204 L 152 225 L 151 226 L 151 228 L 152 229 L 180 229 L 180 225 L 181 224 L 181 219 L 182 218 L 189 218 L 190 219 L 190 221 L 191 222 L 191 228 L 192 229 L 220 229 L 220 223 L 219 222 L 219 210 L 220 209 L 221 210 L 221 211 L 222 212 L 222 215 L 223 216 L 223 218 L 224 219 L 224 221 L 225 222 L 225 224 L 226 225 L 226 227 L 227 228 L 227 229 L 241 229 L 241 173 L 228 173 L 228 189 L 229 190 L 229 194 L 228 195 L 227 194 L 227 192 L 226 191 L 226 189 L 225 188 L 225 185 L 224 184 L 224 183 L 223 182 L 223 179 L 222 178 L 222 176 L 221 175 L 221 173 L 206 173 L 206 221 L 205 222 L 204 221 L 204 217 L 203 216 L 203 213 L 202 212 L 202 208 L 201 207 L 201 203 L 200 202 L 200 198 L 199 197 L 199 193 L 198 192 L 198 189 L 197 188 L 197 184 L 196 183 L 196 180 L 195 179 L 195 175 L 194 174 L 194 173 L 177 173 L 177 177 L 176 178 L 176 181 L 175 182 L 175 186 L 174 187 L 174 191 L 173 192 L 173 195 L 172 196 L 172 201 L 171 202 L 171 205 L 170 206 L 170 210 L 169 211 L 169 214 L 168 215 L 168 219 L 167 220 L 167 224 L 166 225 L 165 224 L 165 173 L 146 173 L 146 175 L 145 176 L 145 179 L 144 180 L 144 184 L 143 185 L 143 189 L 142 190 L 142 194 L 141 195 L 141 199 L 140 200 L 139 199 L 139 196 L 138 195 L 138 191 L 137 190 L 137 185 L 136 184 L 136 181 L 135 180 L 135 175 L 134 174 L 134 173 L 115 173 L 115 226 L 114 227 L 112 225 L 112 211 L 111 210 L 111 205 L 108 202 L 107 202 L 106 201 L 107 200 L 108 200 L 109 199 L 109 198 L 111 196 L 111 193 L 112 192 L 112 185 L 111 184 L 111 180 L 109 178 L 109 177 L 108 176 L 107 176 L 105 174 L 103 174 L 102 173 Z M 127 199 L 128 198 L 129 199 L 129 200 L 128 201 L 127 200 Z M 185 195 L 186 194 L 187 195 L 187 201 L 188 202 L 188 207 L 187 208 L 184 208 L 183 207 L 183 203 L 184 202 L 184 198 L 185 197 Z M 90 184 L 91 183 L 94 183 L 95 184 L 96 184 L 97 185 L 97 186 L 98 187 L 98 192 L 97 193 L 97 194 L 95 196 L 91 196 L 90 195 Z M 54 171 L 53 172 L 49 172 L 48 173 L 47 173 L 46 174 L 45 174 L 43 176 L 42 176 L 42 177 L 40 179 L 40 180 L 39 181 L 39 184 L 38 185 L 38 215 L 39 216 L 39 220 L 40 221 L 40 222 L 41 223 L 41 224 L 45 228 L 46 228 L 47 229 L 49 229 L 50 230 L 63 230 L 64 229 L 66 229 L 68 227 L 69 227 L 71 225 L 71 224 L 72 223 L 72 222 L 73 221 L 73 218 L 74 217 L 74 183 L 73 182 L 73 180 L 72 179 L 72 178 L 68 174 L 67 174 L 66 173 L 65 173 L 64 172 L 60 172 L 59 171 Z M 55 182 L 57 182 L 59 184 L 59 185 L 60 186 L 60 216 L 59 217 L 59 218 L 57 220 L 56 220 L 53 217 L 53 215 L 52 214 L 52 187 L 53 186 L 53 184 Z M 15 171 L 14 172 L 10 172 L 9 173 L 8 173 L 6 175 L 5 175 L 4 176 L 4 177 L 3 178 L 3 179 L 2 180 L 2 182 L 1 183 L 1 219 L 2 220 L 2 223 L 4 225 L 4 226 L 6 228 L 7 228 L 8 229 L 9 229 L 10 230 L 20 230 L 21 229 L 22 229 L 25 226 L 26 227 L 26 229 L 36 229 L 36 198 L 18 198 L 18 209 L 21 209 L 22 210 L 22 218 L 21 219 L 20 219 L 19 220 L 17 220 L 14 217 L 14 185 L 17 182 L 20 182 L 21 183 L 21 184 L 22 185 L 22 192 L 35 192 L 35 181 L 34 180 L 34 179 L 33 178 L 33 177 L 30 174 L 29 174 L 28 173 L 27 173 L 26 172 L 21 172 L 20 171 Z M 412 0 L 411 1 L 410 1 L 406 5 L 406 6 L 405 7 L 405 16 L 407 18 L 407 19 L 408 19 L 410 21 L 411 21 L 412 22 L 420 22 L 421 21 L 422 21 L 423 20 L 424 20 L 427 17 L 427 6 L 422 1 L 421 1 L 420 0 Z M 415 14 L 416 13 L 417 14 L 417 15 L 418 16 L 418 17 L 419 17 L 420 18 L 419 19 L 413 19 L 412 18 L 413 17 L 415 17 Z M 423 8 L 424 9 L 424 14 L 423 15 L 421 13 L 421 10 Z M 415 8 L 416 7 L 417 7 L 418 8 L 418 9 L 417 10 L 416 10 L 415 9 Z M 409 7 L 410 6 L 411 7 L 411 15 L 410 16 L 409 15 L 409 14 L 408 13 L 408 10 L 409 9 Z M 412 4 L 413 3 L 419 3 L 420 4 L 419 5 L 413 5 Z" fill="rgb(0,0,0)" fill-rule="evenodd"/>
<path d="M 2 243 L 2 261 L 413 261 L 413 243 Z" fill="rgb(229,24,54)" fill-rule="evenodd"/>
</g></svg>